<svg xmlns="http://www.w3.org/2000/svg" viewBox="0 0 88 28">
  <defs/>
  <defs>
    <linearGradient id="a" x1="50%" x2="50%" y1="100%" y2="0%">
      <stop offset="0%" stop-color="#7140CC"/>
      <stop offset="100%" stop-color="#8D61DF"/>
    </linearGradient>
  </defs>
  <g fill="url(#a)" fill-rule="evenodd" transform="translate(-130 -26)">
    <path d="M146.644 26.718l-3.905.02a1 1 0 00-.996 1.009l.003.648a2.917 2.917 0 01-2.898 2.934h-.022a8.862 8.862 0 00-6.05 2.415A8.834 8.834 0 00130 40.197c.025 4.865 4.025 8.802 8.916 8.777.142 0 .286-.005.428-.012 4.733-.246 8.422-4.192 8.398-8.983l-.007-1.35a1.098 1.098 0 00-1.106-1.087l-3.883.02a.951.951 0 00-.948.952l.009 1.623a2.93 2.93 0 01-2.92 2.934 2.954 2.954 0 01-2.92-2.5 2.766 2.766 0 01.59-2.162c.55-.681 1.405-1.174 2.352-1.178 3.437-.018 5.117-1 6.473-2.361 2.766-2.78 2.31-4.673 2.297-7.166a1.023 1.023 0 00-1.03-.986h-.005M186.715 31.754c-4.727.222-8.43 4.156-8.43 8.956v1.351c0 .605.492 1.096 1.097 1.096h3.878a.951.951 0 00.951-.949v-1.626a2.931 2.931 0 012.93-2.925 2.954 2.954 0 012.902 2.52h.001a2.777 2.777 0 01-.6 2.163c-.554.679-1.41 1.168-2.354 1.168-3.433 0-5.115.975-6.475 2.332-2.777 2.77-2.33 4.67-2.33 7.167.018.557.469.993 1.027.993h3.9c.55 0 .999-.447.999-1.006v-.65a2.918 2.918 0 012.909-2.924h.022a8.833 8.833 0 006.052-2.388 8.864 8.864 0 002.806-6.45c0-4.874-3.974-8.838-8.858-8.838-.141 0-.285.003-.427.01M216.92 31.745c-1.703.122-4.327 1.16-5.047 1.514-.72.354-.712.414-1.034.414-.014 0-.178.004-.303-.045-.005-.002-.469-.195-.741-.195-.946 0-1.713.733-1.715 1.64l-.004.002-.003 1.225c-.002 1.968-.005 5.62-.008 5.632v5.973c0 .59.5 1.07 1.115 1.07h3.963c.56 0 1.013-.435 1.013-.97v-7.886c0-.023.003-.046.008-.07a.085.085 0 00.002-.017c0-2.101 1.892-2.267 3.019-2.57a1.058 1.058 0 00.815-1.014V34.44c0-.551-.027-1.117-.027-1.718-.017-.521-.435-.935-.967-.977a.622.622 0 00-.085 0M158.017 31.745c-1.703.122-4.327 1.16-5.047 1.513-.72.355-.712.415-1.034.415-.014 0-.178.004-.304-.045-.005-.002-.468-.195-.74-.195-.946 0-1.713.733-1.715 1.64l-.004.002-.003 1.225c-.003 1.968-.006 5.62-.009 5.632v5.973c0 .59.5 1.07 1.116 1.07h3.963c.56 0 1.013-.435 1.013-.97v-7.886c0-.023.003-.046.008-.07a.09.09 0 00.002-.017c0-2.101 1.892-2.267 3.018-2.57l.014-.004c.473-.127.802-.539.802-1.01V34.44c0-.552-.027-1.117-.027-1.718-.017-.521-.436-.935-.968-.977a.663.663 0 00-.085 0M198.41 26a.982.982 0 00-.99.974v13.205c0 3.425.976 5.12 2.373 6.462 1.522 1.461 3.114 2.333 5.703 2.333.912 0 1.15-.69 1.15-.96V44.06c0-.538-.133-.784-1.044-1.006-1.401-.34-2.164-1.491-2.164-2.907V26.974a.982.982 0 00-.99-.974h-4.038zM169.245 32.232v3.62l.001.219c.01.68.108 1.167 1.15 2.18.57.554 1.031 1.246 1.031 2.093 0 1.472-1.127 2.622-2.63 2.678a.937.937 0 01-.065.002l-.052.001h-.067a.94.94 0 01-.066-.003c-1.503-.056-2.63-1.206-2.63-2.678 0-.847.462-1.539 1.032-2.094 1.04-1.011 1.14-1.498 1.15-2.176V32.232a.518.518 0 00-.352-.488c-4.462.453-7.94 4.127-7.94 8.592 0 4.77 3.97 8.638 8.87 8.638 4.9 0 8.871-3.867 8.871-8.638 0-4.468-3.483-8.143-7.949-8.592a.52.52 0 00-.354.488"/>
  </g>
</svg>
